/* XPM */
static char * exit_xpm[] = {
"64 64 535 2",
"  	c #704F2F",
". 	c #7A5737",
"+ 	c #7A5738",
"@ 	c #7A5838",
"# 	c #7C5939",
"$ 	c #7F5B3B",
"% 	c #815D3C",
"& 	c #755433",
"* 	c #8F826F",
"= 	c #A99E8C",
"- 	c #A99F8C",
"; 	c #A99F8D",
"> 	c #A99E8D",
", 	c #AA9E8C",
"' 	c #ADA290",
") 	c #B2A895",
"! 	c #B6AB99",
"~ 	c #A69A87",
"{ 	c #916947",
"] 	c #A37754",
"^ 	c #8C6544",
"/ 	c #C8BEAB",
"( 	c #F3EBD7",
"_ 	c #D3CAB6",
": 	c #8F6847",
"< 	c #A47754",
"[ 	c #A27754",
"} 	c #795E49",
"| 	c #966F4F",
"1 	c #8B6544",
"2 	c #C6BDA9",
"3 	c #DFD7C5",
"4 	c #ACA698",
"5 	c #F2EAD6",
"6 	c #F4EBD7",
"7 	c #D2C9B5",
"8 	c #8F6846",
"9 	c #986F4F",
"0 	c #6B5B4D",
"a 	c #966D4D",
"b 	c #80624A",
"c 	c #976F50",
"d 	c #A27654",
"e 	c #655F55",
"f 	c #746252",
"g 	c #C6BCA9",
"h 	c #948F82",
"i 	c #6A655B",
"j 	c #F1E9D5",
"k 	c #DFD8C6",
"l 	c #BAB3A4",
"m 	c #A8A294",
"n 	c #E3DBC8",
"o 	c #8F6746",
"p 	c #976E4D",
"q 	c #676056",
"r 	c #6E6052",
"s 	c #5F5043",
"t 	c #706355",
"u 	c #80624B",
"v 	c #534F48",
"w 	c #545049",
"x 	c #78604C",
"y 	c #866951",
"z 	c #A39D8F",
"A 	c #BFB8A8",
"B 	c #57534B",
"C 	c #504C44",
"D 	c #B9B2A3",
"E 	c #868075",
"F 	c #7E796E",
"G 	c #A6A092",
"H 	c #6D685E",
"I 	c #E2DBC8",
"J 	c #D2C8B5",
"K 	c #7F6855",
"L 	c #49453F",
"M 	c #5B564E",
"N 	c #68635A",
"O 	c #635F56",
"P 	c #3C3934",
"Q 	c #3E3B35",
"R 	c #655E54",
"S 	c #635C52",
"T 	c #6A655C",
"U 	c #6B665D",
"V 	c #393731",
"W 	c #625D54",
"X 	c #686359",
"Y 	c #59554C",
"Z 	c #48443D",
"` 	c #AAA495",
" .	c #F4ECD8",
"..	c #D1C8B5",
"+.	c #87664C",
"@.	c #4C4841",
"#.	c #44413A",
"$.	c #615C53",
"%.	c #45423B",
"&.	c #504C45",
"*.	c #656057",
"=.	c #645F56",
"-.	c #514D46",
";.	c #45413B",
">.	c #5F5A51",
",.	c #48443E",
"'.	c #47433C",
").	c #C5BFAE",
"!.	c #8E6746",
"~.	c #90694B",
"{.	c #5D5850",
"].	c #1E1D1A",
"^.	c #4A463F",
"/.	c #4E4A42",
"(.	c #403D37",
"_.	c #4B4740",
":.	c #555149",
"<.	c #625E55",
"[.	c #4A4740",
"}.	c #4B4840",
"|.	c #4D4942",
"1.	c #D7CFBE",
"2.	c #896548",
"3.	c #201E1B",
"4.	c #2B2925",
"5.	c #36342E",
"6.	c #413E38",
"7.	c #58544C",
"8.	c #625D55",
"9.	c #58534B",
"0.	c #4C4942",
"a.	c #36332E",
"b.	c #2B2825",
"c.	c #565149",
"d.	c #C1BBAB",
"e.	c #5D584F",
"f.	c #23211E",
"g.	c #2F2D28",
"h.	c #35332E",
"i.	c #3F3C37",
"j.	c #4A4640",
"k.	c #545048",
"l.	c #5C574F",
"m.	c #3F3C36",
"n.	c #35322D",
"o.	c #2E2B28",
"p.	c #5F5A52",
"q.	c #EAE2CF",
"r.	c #58534A",
"s.	c #22201D",
"t.	c #2D2A26",
"u.	c #47443D",
"v.	c #57524A",
"w.	c #59554D",
"x.	c #56524A",
"y.	c #3D3A35",
"z.	c #2D2B27",
"A.	c #5E5A51",
"B.	c #F1E9D6",
"C.	c #A27653",
"D.	c #534D45",
"E.	c #2A2824",
"F.	c #36342F",
"G.	c #4E4A43",
"H.	c #262420",
"I.	c #5A554C",
"J.	c #605B52",
"K.	c #4B4841",
"L.	c #393631",
"M.	c #48453E",
"N.	c #524E46",
"O.	c #37342F",
"P.	c #46423C",
"Q.	c #837E73",
"R.	c #43403A",
"S.	c #59544C",
"T.	c #58534C",
"U.	c #635E55",
"V.	c #5E5950",
"W.	c #47443E",
"X.	c #6D675D",
"Y.	c #544F48",
"Z.	c #5B574E",
"`.	c #5A564D",
" +	c #605B53",
".+	c #666157",
"++	c #656056",
"@+	c #534F47",
"#+	c #605A51",
"$+	c #46433C",
"%+	c #5F5B52",
"&+	c #4B4741",
"*+	c #E3DCC9",
"=+	c #F4ECD7",
"-+	c #44413B",
";+	c #4F4B44",
">+	c #5A554D",
",+	c #49453E",
"'+	c #434039",
")+	c #827D72",
"!+	c #676258",
"~+	c #C0B9A9",
"{+	c #C4BDAD",
"]+	c #8A8579",
"^+	c #A7A193",
"/+	c #E0D9C6",
"(+	c #7D644F",
"_+	c #423E38",
":+	c #47433D",
"<+	c #524E47",
"[+	c #45423C",
"}+	c #CDC6B5",
"|+	c #BCB5A6",
"1+	c #6C675D",
"2+	c #2B2924",
"3+	c #383530",
"4+	c #736E63",
"5+	c #E7E0CD",
"6+	c #665242",
"7+	c #5E5951",
"8+	c #423F39",
"9+	c #4C4842",
"0+	c #4D4943",
"a+	c #49463F",
"b+	c #3F3B36",
"c+	c #B4AE9F",
"d+	c #B7B1A1",
"e+	c #69645B",
"f+	c #0F0E0C",
"g+	c #0D0D0B",
"h+	c #DFD8C5",
"i+	c #8D694D",
"j+	c #5E584F",
"k+	c #5C574E",
"l+	c #44403A",
"m+	c #413D38",
"n+	c #3D3A34",
"o+	c #676259",
"p+	c #676158",
"q+	c #8A8478",
"r+	c #8F8A7D",
"s+	c #4E4B44",
"t+	c #211F1C",
"u+	c #2F2C28",
"v+	c #4D4941",
"w+	c #8E6A4E",
"x+	c #696258",
"y+	c #38352F",
"z+	c #131211",
"A+	c #171614",
"B+	c #706A60",
"C+	c #3E3B36",
"D+	c #6B665C",
"E+	c #2E2B27",
"F+	c #100F0E",
"G+	c #11110F",
"H+	c #46423B",
"I+	c #817C70",
"J+	c #797469",
"K+	c #6A645B",
"L+	c #716C62",
"M+	c #9D7251",
"N+	c #635D53",
"O+	c #141311",
"P+	c #181715",
"Q+	c #1D1B18",
"R+	c #534E47",
"S+	c #1D1C19",
"T+	c #0E0D0C",
"U+	c #57524B",
"V+	c #716B61",
"W+	c #9D978A",
"X+	c #E9E1CE",
"Y+	c #7C614B",
"Z+	c #131210",
"`+	c #181614",
" @	c #1C1B18",
".@	c #252320",
"+@	c #57534A",
"@@	c #1F1D1A",
"#@	c #1A1916",
"$@	c #2F2C27",
"%@	c #34312C",
"&@	c #24221E",
"*@	c #121110",
"=@	c #292723",
"-@	c #1D1B19",
";@	c #11100F",
">@	c #666158",
",@	c #6E695F",
"'@	c #AEA899",
")@	c #A17553",
"!@	c #716356",
"~@	c #2A2723",
"{@	c #181714",
"]@	c #1C1A18",
"^@	c #2A2724",
"/@	c #2E2C27",
"(@	c #3B3832",
"_@	c #12110F",
":@	c #302D29",
"<@	c #292724",
"[@	c #2C2A26",
"}@	c #635F55",
"|@	c #756F65",
"1@	c #787268",
"2@	c #CCC5B4",
"3@	c #966E4F",
"4@	c #282522",
"5@	c #32302B",
"6@	c #797369",
"7@	c #DED7C5",
"8@	c #D8D1BF",
"9@	c #706B61",
"0@	c #6F6A61",
"a@	c #E0D8C6",
"b@	c #775B45",
"c@	c #312E2A",
"d@	c #34312D",
"e@	c #56514A",
"f@	c #7A5F4A",
"g@	c #24221F",
"h@	c #282622",
"i@	c #25231F",
"j@	c #655F56",
"k@	c #7E644F",
"l@	c #1E1C19",
"m@	c #3A3731",
"n@	c #514D45",
"o@	c #AAA496",
"p@	c #836A55",
"q@	c #3C3933",
"r@	c #3A3732",
"s@	c #3A3832",
"t@	c #262421",
"u@	c #5B574F",
"v@	c #393630",
"w@	c #555048",
"x@	c #403C36",
"y@	c #4D4841",
"z@	c #ABA596",
"A@	c #846B57",
"B@	c #33302B",
"C@	c #312E29",
"D@	c #413D37",
"E@	c #1A1816",
"F@	c #ABA597",
"G@	c #835E3E",
"H@	c #946B4A",
"I@	c #936B4A",
"J@	c #7C6653",
"K@	c #0D0C0B",
"L@	c #272521",
"M@	c #080907",
"N@	c #9A9385",
"O@	c #D8CFBC",
"P@	c #D9D0BC",
"Q@	c #DBD1BE",
"R@	c #E0D8C4",
"S@	c #E3DAC6",
"T@	c #C5BBA8",
"U@	c #9B8F7C",
"V@	c #B1A694",
"W@	c #B1A794",
"X@	c #B1A795",
"Y@	c #8B8375",
"Z@	c #0B0B09",
"`@	c #0A0B09",
" #	c #0E0E0C",
".#	c #100F0D",
"+#	c #201F1C",
"@#	c #21201C",
"##	c #12120F",
"$#	c #0A0A09",
"%#	c #634F3D",
"&#	c #7F5C3D",
"*#	c #805D3D",
"=#	c #825E3F",
"-#	c #856141",
";#	c #876343",
">#	c #7D5B3C",
",#	c #B0A99B",
"'#	c #1F1E1A",
")#	c #0F0F0D",
"!#	c #1F1E1B",
"~#	c #1B1A17",
"{#	c #191815",
"]#	c #916948",
"^#	c #D0C7B4",
"/#	c #ADA798",
"(#	c #3B3732",
"_#	c #0C0C0A",
":#	c #1E1C1A",
"<#	c #4F4A43",
"[#	c #413E37",
"}#	c #534E46",
"|#	c #987153",
"1#	c #D0C7B3",
"2#	c #2C2925",
"3#	c #11100E",
"4#	c #22201C",
"5#	c #35332D",
"6#	c #191816",
"7#	c #1A1917",
"8#	c #0C0C0B",
"9#	c #56534B",
"0#	c #987051",
"a#	c #D0C6B3",
"b#	c #B5AFA0",
"c#	c #292623",
"d#	c #151412",
"e#	c #58544D",
"f#	c #966E4E",
"g#	c #906947",
"h#	c #CFC6B2",
"i#	c #1F1D1B",
"j#	c #524D46",
"k#	c #161513",
"l#	c #21201D",
"m#	c #6F6154",
"n#	c #CFC5B2",
"o#	c #0F0E0D",
"p#	c #171613",
"q#	c #706152",
"r#	c #8E887C",
"s#	c #191715",
"t#	c #6E5E4F",
"u#	c #8B857A",
"v#	c #201F1B",
"w#	c #22211E",
"x#	c #8E6F56",
"y#	c #906847",
"z#	c #A7A192",
"A#	c #504B44",
"B#	c #1B1917",
"C#	c #87654B",
"D#	c #C6BFAF",
"E#	c #4F4B43",
"F#	c #2D2B26",
"G#	c #815E42",
"H#	c #C2BBAB",
"I#	c #58544B",
"J#	c #1B1A18",
"K#	c #5C564D",
"L#	c #9C7251",
"M#	c #0B0C0A",
"N#	c #302E29",
"O#	c #846C58",
"P#	c #CEC5B2",
"Q#	c #898478",
"R#	c #433F39",
"S#	c #B3AD9E",
"T#	c #282623",
"U#	c #7B604B",
"V#	c #B2AC9D",
"W#	c #272522",
"X#	c #2B2824",
"Y#	c #161512",
"Z#	c #816752",
"`#	c #33312C",
" $	c #322F2B",
".$	c #312F2A",
"+$	c #433F3A",
"@$	c #655C50",
"#$	c #A9A395",
"$$	c #33302C",
"%$	c #34322D",
"&$	c #84664E",
"*$	c #D1CAB8",
"=$	c #373530",
"-$	c #35322E",
";$	c #615B51",
">$	c #98704F",
",$	c #423F38",
"'$	c #36332F",
")$	c #3B3933",
"!$	c #77604D",
"~$	c #CCC6B5",
"{$	c #635D55",
"]$	c #2F2D29",
"^$	c #615B53",
"/$	c #956D4D",
"($	c #A59F91",
"_$	c #5C584F",
":$	c #3B3833",
"<$	c #625C54",
"[$	c #86654A",
"}$	c #6F5B4A",
"|$	c #888377",
"1$	c #514C45",
"2$	c #5D5950",
"3$	c #3C3833",
"4$	c #625C52",
"5$	c #675647",
"6$	c #C3BCAC",
"7$	c #5A564E",
"8$	c #555049",
"9$	c #5C5247",
"0$	c #957154",
"a$	c #986F4E",
"b$	c #A47854",
"c$	c #CFC6B3",
"d$	c #F0E8D5",
"e$	c #6C685E",
"f$	c #605C53",
"g$	c #81644D",
"h$	c #CFC5B3",
"i$	c #757066",
"j$	c #60564B",
"k$	c #A49E91",
"l$	c #7D786D",
"m$	c #695E52",
"n$	c #83644C",
"o$	c #EBE3D0",
"p$	c #B8B1A2",
"q$	c #B5AE9F",
"r$	c #B5AF9F",
"s$	c #9B9485",
"t$	c #7B6755",
"u$	c #886F5B",
"v$	c #866D59",
"w$	c #9D7351",
"x$	c #C6BDAB",
"y$	c #896342",
"z$	c #B5AB99",
"A$	c #D3CAB7",
"B$	c #D4CAB7",
"C$	c #D6CDB9",
"D$	c #DCD3C0",
"E$	c #DFD6C2",
"F$	c #B9AE9C",
"G$	c #936B49",
"H$	c #966D4B",
"I$	c #976E4C",
"J$	c #876241",
"  . . + + + + + @ + @ + + + + + + + + + + + @ + + + . @ # $ % & * = = = = = = - ; ; ; ; > ; ; ; ; ; ; ; ; ; ; > = = = , ' ) ! ~ ",
"{ ] ] ] ] ] ] ] ] ] ] ] ] ] ] ] ] ] ] ] ] ] ] ] ] ] ] ] ] ] ] ^ / ( ( ( ( ( ( ( ( ( ( ( ( ( ( ( ( ( ( ( ( ( ( ( ( ( ( ( ( ( ( _ ",
": ] ] ] ] ] ] ] ] ] ] ] ] ] ] ] ] ] ] ] ] ] ] < ] ] ] [ } | ] 1 2 ( 3 4 5 ( ( ( 6 ( ( ( ( ( ( ( ( ( ( ( ( ( ( ( ( ( ( ( ( ( ( 7 ",
"8 ] ] ] ] ] ] ] ] ] ] ] ] ] ] ] ] ] ] ] ] ] 9 0 a b c d e f d 1 g 5 h i j k l 5 m n ( ( ( ( ( ( ( ( ( ( ( ( ( ( ( ( ( ( ( ( ( 7 ",
"o ] ] ] ] ] ] ] ] ] ] ] ] ] ] ] ] ] ] ] ] ] p q r s t u v w x y z A B C D E F G H I ( ( ( ( ( ( ( ( ( ( ( ( ( ( ( ( ( ( ( ( ( J ",
"o ] ] ] ] ] ] ] ] ] ] ] ] ] ] ] ] ] ] ] ] ] ] K L M N O P Q R S T U Q V W X Y Z `  .( ( ( ( ( ( ( ( ( ( ( ( ( ( ( ( ( ( ( ( ( ..",
"o ] ] ] ] ] ] ] ] ] ] ] ] ] ] ] ] ] ] ] ] ] ] +.@.#.$.W P %.&.*.=.-.;.P >.>.,.'.).( ( ( ( ( ( ( ( ( ( ( ( ( ( ( ( ( ( ( ( ( ( ..",
"!.] ] ] ] ] ] ] ] ] ] ] ] ] ] ] ] ] ] ] ] ] ] ~.{.].^./.(._.:.W <.:.[.(.}.|.].{.1.( ( ( ( ( ( ( ( ( ( ( ( ( ( ( ( ( ( ( ( ( ( ..",
"!.] ] ] ] ] ] ] ] ] ] ] ] ] ] ] ] ] ] ] ] ] ] 2.Y 3.4.5.6.|.7.8.W 9.0.6.a.b.3.c.d.( ( ( ( ( ( ( ( ( ( ( ( ( ( ( ( ( ( ( ( ( ( ..",
"!.] ] ] ] ] ] ] ] ] ] ] ] ] ] ] ] ] ] ] ] ] ] [ e.f.g.h.i.j.k.l.l.k.^.m.n.o.f.p.q.( ( ( ( ( ( ( ( ( ( ( ( ( ( ( ( ( ( ( ( ( ( ..",
"!.] ] ] ] ] ] ] ] ] ] ] ] ] ] ] ] ] ] ] ] ] ] d r.s.t.Q u.-.v.w.w.x.&.u.y.z.3.A.B.( ( ( ( ( ( ( ( ( ( ( ( ( ( ( ( ( ( ( ( ( ( ..",
"!.] ] ] ] ] ] ] ] ] ] ] ] ] ] ] ] ] ] ] ] ] ] C.D.E.4.F.6.G.l.=.=.l.G.6.a.4.H.Y j ( ( ( ( ( ( ( ( ( ( ( ( ( ( ( ( ( ( ( ( ( ( ..",
"!.] ] ] ] ] ] ] ] ] ] ] ] ] ] ] ] ] ] ] ] ] ] C.I.J.K.L.y.M.N.B B -.,.y.O.P.J.Q.5 ( ( ( ( ( ( ( ( ( ( ( ( ( ( ( ( ( ( ( ( ( ( ..",
"!.] ] ] ] ] ] ] ] ] ] ] ] ] ] ] ] ] ] ] ] ] ] [ >.R.B =.*.{.Y Y S.T.M U.=.w.P.x.j ( ( ( ( ( ( ( ( ( ( ( ( ( ( ( ( ( ( ( ( ( ( ..",
"!.] ] ] ] ] ] ] ] ] ] ] ] ] ] ] ] ] ] ] ] ] ] ~.V.6.W.G.k.$.X H X.X $.Y.|.P.(.Z.B.( ( ( ( ( ( ( ( ( ( ( ( ( ( ( ( ( ( ( ( ( ( ..",
"!.] ] ] ] ] ] ] ] ] ] ] ] ] ] ] ] ] ] ] ] ] ] ~.V.6.,.G.k.`. +.+++>.Y @+0.P.(.Z.B.( ( ( ( ( ( ( ( ( ( ( ( ( ( ( ( ( ( ( ( ( ( ..",
"!.] ] ] ] ] ] ] ] ] ] ] ] ] ] ] ] ] ] ] ] ] ] [ #+(.$+|.@+7.{.J.%+l.B -.&+;.6.7.j ( ( ( ( *+( (  .=+( ( ( ( ( ( ( ( ( ( ( ( ( ..",
"!.] ] ] ] ] ] ] ] ] ] ] ] ] ] ] ] ] ] ] ] ] ] C.r.(.-+j.;+k.T.>+>+B @+G.,+'+L )+5 ( ( ( I !+~+{+]+^+/+( ( ( ( ( ( ( ( ( ( ( ( ..",
"!.] ] ] ] ] ] ] ] ] ] ] ] ] ] ] ] ] ] ] ] ] ] ] (+@._+:+K.;+<+k.Y.N.G.[.[+(.@+}+( ( ( ( |+1+M p.2+3+4+5+( ( ( ( ( ( ( ( ( ( ( ..",
"!.] ] ] ] ] ] ] ] ] ] ] ] ] ] ] ] ] ] ] ] ] d 2.6+7+Q 8+:+j.9+0+|.@.a+[+6.b+J.c+k 5 ( d+7+p.X e+f+g+a+h+( ( ( ( ( ( ( ( ( ( ( ..",
"!.] ] ] ] ] ] ] ] ] ] ] ] ] ] ] ] ] ] ] ] i+j+W k+1+|.Q _+-+$+u.u.P.l+m+n+l.o+I.p+q+*+r+6.^.s+{.t+u+v+3 ( ( ( ( ( ( ( ( ( ( ( ..",
"!.] ] ] ] ] ] ] ] ] ] ] ] ] ] ] ] ] ] ] w+x+y+z+A+(.B+,.n+m.(.6.6.(.C+Q x.D+E+F+G+H+I+J+;+`.V.K+J.D+L+5+( ( ( ( ( ( ( ( ( ( ( ..",
"!.] ] ] ] ] ] ] ] ] ] ] ] ] ] ] ] ] ] M+N+n.O+P+Q+t+,.>.7.w <+-.R+<+B x.l.O.S+A+G+T+,+>+i J.U.U+<+V+W+X+( ( ( ( ( ( ( ( ( ( ( ..",
"!.] ] ] ] ] ] ] ] ] ] ] ] ] ] ] ] ] ] Y+B Z+`+ @t+.@E.+@@@#@$@O.%@&@*@y+;+=@f.-@A+;@H.p+/.>@M k.M.{.,@'@( ( ( ( ( ( ( ( ( ( ( ..",
"!.] ] ] ] ] ] ] ] ] ] ] ] ] ] ] ] ] )@!@~@{@]@t+.@^@/@(@k._@f.a.E.Z+Q+>+O.:@<@[@(@R.}@4.Q |@ +,+_.1@2@5 ( ( ( ( ( ( ( ( ( ( ( ..",
"!.] ] ] ] ] ] ] ] ] ] ] ] ] ] ] ] ] 3@x.4@y.a+%.(@:@5@O.-.M w.:.B c.-.|.n+a.&.:.:.<+&.J.6@7@8@9@0@a@( ( ( ( ( ( ( ( ( ( ( ( ( ..",
"!.] ] ] ] ] ] ] ] ] ] ] ] ] ] ] ] ] b@$.{.Z :@F.|.7.B N.B :.F.c@d@,+!+L 8+P 7+8+e@w.M.Y l.k ( 5 5 ( ( ( ( ( ( ( ( ( ( ( ( ( ( ..",
"!.] ] ] ] ] ] ] ] ] ] ] ] ] ] ] ] ] f@:+O.@..@.@.@g@h@m.$.3+h@@@i@%@>.<.$.p.!+R.9.l.j.-.j@h+( ( ( ( ( ( ( ( ( ( ( ( ( ( ( ( ( ..",
"!.] ] ] ] ] ] ] ] ] ] ] ] ] ] ] ] ] k@8+i@e@j.[@4.4.4.4.l.%@s.O+l@:@@+m@g.e@l.|.:+,+&.c.n@o@( ( ( ( ( ( ( ( ( ( ( ( ( ( ( ( ( ..",
"!.] ] ] ] ] ] ] ] ] ] ] ] ] ] ] ] ] p@b+O._.q@9.r@c@c@c@`.s@=@t+t@n.u@v@V.L.:@i Z U+w@x@y@z@( ( ( ( ( ( ( ( ( ( ( ( ( ( ( ( ( ..",
"!.] ] ] ] ] ] ] ] ] ] ] ] ] ] ] ] ] A@n+&+.@g+3.=.B N.M.Y.Z.3+B@a.&.J.{.C@n.p.a+o+D@E@:._.F@( ( ( ( ( ( ( ( ( ( ( ( ( ( ( ( ( ..",
"G@H@H@H@H@H@H@H@H@H@H@H@H@I@H@H@H@H@J@Q N.K@g+:+[@S+B l+,+c.l.{.{.$.*.L@6.U.`+g+E.:+M@&._.N@O@O@O@O@O@O@O@O@O@O@O@O@O@P@Q@R@S@T@",
"U@V@V@V@V@W@W@W@W@W@W@W@W@W@W@X@X@X@Y@m.@+Z@`@^. #.#K.&@f.t++#@#m.S.S+,.N.w@|.##g+ #$#|.|.%#&#&#&#&#&#&#&#&#&#&#&#&#&#*#=#-#;#>#",
"..( ( ( ( ( ( ( ( ( ( ( ( ( ( ( ( ( ,#8+n@'#$#P. #)#j.t++#].-@$+Y.{@-.a+!#6.y+N.~#g+{#x.C b@] ] ] ] ] ] ] ] ] ] ] ] ] ] ] ] ] ]#",
"^#( ( ( ( ( ( ( ( ( ( ( ( ( ( ( ( ( /#:+6.(#_#&.~#)#a+!#:# @<#@.~#B m.~#-@[#g+i@}#n@e@O.w |#] ] ] ] ] ] ] ] ] ] ] ] ] ] ] ] ] { ",
"1#( ( ( ( ( ( ( ( ( ( ( ( ( ( ( ( ( F@_.2#k.3#=@G.@#[.l@3.k.8+4#w.5#A+6#7#6.g+g+8#S+t+b.9#0#] ] ] ] ] ] ] ] ] ] ] ] ] ] ] ] ] { ",
"a#( ( ( ( ( ( ( ( ( ( ( ( ( ( ( ( ( b#-.c#(@K.3#x.@+7+Q 7.m@E+k+h@O+d#A+P+8+g+g+)#A+t+4.e#f#] ] ] ] ] ] ] ] ] ] ] ] ] ] ] ] ] g#",
"h#( ( ( ( ( ( ( ( ( ( ( ( ( ( ( ( ( /+Y.=@i#V S.j#l+8+A.x@3+B 4#F+;@z+k#A+D@g+g+)#`+l#2#m#)@] ] ] ] ] ] ] ] ] ] ] ] ] ] ] ] ] g#",
"n#( ( ( ( ( ( ( ( ( ( ( ( ( ( ( ( ( n O ^@!#!#x.j.7.<+8+>.x.A+F+ #o#*@d#p#'+T+g+)#P+s.2#q#] ] ] ] ] ] ] ] ] ] ] ] ] ] ] ] ] ] g#",
"n#( ( ( ( ( ( ( ( ( ( ( ( ( ( ( ( (  .r#^@3.n+@.G.A.B ;.c.`+Z+F+o#F+Z+d#A+a+.#g+.#s#s.d@t#< ] ] ] ] ] ] ] ] ] ] ] ] ] ] ] ] ] g#",
"n#( ( ( ( ( ( ( ( ( ( ( ( ( ( ( ( (  .u#[@v#g.{.[+|.@+>+h@A+O+Z+_@Z+O+k#{#,+##g+F+{#w#,.x#] ] ] ] ] ] ] ] ] ] ] ] ] ] ] ] ] ] y#",
"n#( ( ( ( ( ( ( ( ( ( ( ( ( ( ( ( ( =+z#(.t+|.A#l.*.|.g@B#s#k#d#O+d#k#s#7#R.!#g+F+{#f.@+C#] ] ] ] ] ] ] ] ] ] ] ] ] ] ] ] ] ] y#",
"n#( ( ( ( ( ( ( ( ( ( ( ( ( ( ( ( ( ( D#E#9.6.H.Y v i@!#-@7#6#P+{@P+{#7#-@B@F#g+F+6#s.S.G#] ] ] ] ] ] ] ] ] ] ] ] ] ] ] ] ] ] y#",
"n#( ( ( ( ( ( ( ( ( ( ( ( ( ( ( ( ( ( H#I#R+_.M H.^.g@l#!#S+J#7##@7#J#S+i#=@'+g+3##@g@K#L#] ] ] ] ] ] ] ] ] ] ] ] ] ] ] ] ] ] y#",
"n#( ( ( ( ( ( ( ( ( ( ( ( ( ( ( ( ( ( j %+s.|. @)#:+.@f.s.3.@@:#:#:#@@3.s.g@_.M#;@#@N#O#] ] ] ] ] ] ] ] ] ] ] ] ] ] ] ] ] ] ] y#",
"P#( ( ( ( ( ( ( ( ( ( ( ( ( ( ( ( ( ( 5 Q#E.`+.#B@R#h@H.g@f.s.t+t+t+s.f.g@.@:+T+_@7#(@k@] ] ] ] ] ] ] ] ] ] ] ] ] ] ] ] ] ] ] y#",
"n#( ( ( ( ( ( ( ( ( ( ( ( ( ( ( ( ( ( ( S#u+P+F+P.:@E.T#L@.@g@g@g@g@g@.@L@T#l+E._@B#(.U#] ] ] ] ] ] ] ] ] ] ] ] ] ] ] ] ] ] ] y#",
"n#( ( ( ( ( ( ( ( ( ( ( ( ( ( ( ( ( ( ( V#g.s#{@&.E+[@b.^@h@4@L@L@L@W#T#=@4.F.m._@~#(.U#] ] ] ] ] ] ] ] ] ] ] ] ] ] ] ] ] ] ] y#",
"n#( ( ( ( ( ( ( ( ( ( ( ( ( ( ( ( ( ( 5 %+=@{#Q D@c@u+z.[@4.X#E.E.E.E.4.[@z./@R+Y#J#L.Z#] ] ] ] ] ] ] ] ] ] ] ] ] ] ] ] ] ] ] y#",
"n#( ( ( ( ( ( ( ( ( ( ( ( ( ( ( ( ( ( 2@u@s.`+;+h.`# $N#u+E+z.t.t.t.t.E+u+:@.$+$8+J#=@@$a ] ] ] ] ] ] ] ] ] ] ] ] ] ] ] ] ] ] y#",
"n#( ( ( ( ( ( ( ( ( ( ( ( ( ( ( ( (  .#$(.g@A+j#3+F.n.`# $c@N#:@:@:@N#c@ $$$%$a.&.~#t@N.&$] ] ] ] ] ] ] ] ] ] ] ] ] ] ] ] ] ] y#",
"n#( ( ( ( ( ( ( ( ( ( ( ( ( ( ( ( ( *$*.E+g@Q J.|.V =$F.-$%$%@`#$$$$`#%$n.a.3+:.>.u+t@ $;$>$] ] ] ] ] ] ] ] ] ] ] ] ] ] ] ] ] y#",
"h#( ( ( ( ( ( ( ( ( ( ( ( ( ( ( ( 5 q+,$o.g@@+t@G.7+N.P.r@'$h.h.h.h.a.)$u.:.J.P.Q ;.L@N#;+!$] ] ] ] ] ] ] ] ] ] ] ] ] ] ] ] ] y#",
"n#( ( ( ( ( ( ( ( ( ( ( ( ( ( ( ( ~$=.L.u+i@Z.n@g@:@j.M J.*.}@{$U.*.>@$.k+^.`#]$$.P.L@c@(.^$/$] ] ] ] ] ] ] ] ] ] ] ] ] ] ] ] y#",
"n#( ( ( ( ( ( ( ( ( ( ( ( ( ( ( =+($_$:$u+.@k.G.J.G.Q L.m.:+G.R+Y.-.0.[+(.:+:.<$G.%.W#.$m.*.[$] ] ] ] ] ] ] ] ] ] ] ] ] ] ] ] y#",
"n#( ( ( ( ( ( ( ( ( ( ( ( ( ( (  .r#e.P u+.@w@q@D@v J.*.*.++W $.W =.!+o+j@>.G.Q :+P.h@.$6.>@}$< ] ] ] ] ] ] ] ] ] ] ] ] ] ] ] y#",
"n#( ( ( ( ( ( ( ( ( ( ( ( ( ( ( ( 2@|$>@Y.6.x.n+(.[+_.1$v.2$U.X o+W l.:.;+L l+m.W.P.3$:.4$5$f#] ] ] ] ] ] ] ] ] ] ] ] ] ] ] ] y#",
"n#( ( ( ( ( ( ( ( ( ( ( ( ( ( ( ( (  .I 6$T W n+(.[+_.n@x.l.$..+j@J.7$8$;+a+l+m.u.j@9$0$a$b$] ] ] ] ] ] ] ] ] ] ] ] ] ] ] ] ] y#",
"c$( ( ( ( ( ( ( ( ( ( ( ( ( ( ( ( ( ( ( ( d$e$P.m.-+^.C 8$>+V.f$J.{.7.v G.M.R.Q -.g$C.] ] ] ] ] ] ] ] ] ] ] ] ] ] ] ] ] ] ] ] y#",
"h$( ( ( ( ( ( ( ( ( ( ( ( ( ( ( ( ( ( ( ( ( /+i$k.R.W.|.j#e@Y M M 7.:.1$K.$+-+>+j$L#] ] ] ] ] ] ] ] ] ] ] ] ] ] ] ] ] ] ] ] ] y#",
"h$( ( ( ( ( ( ( ( ( ( ( ( ( ( ( ( ( ( ( ( ( ( k k$l$l.M B x.x.B B x.x.9.{.7+m$n$C.] ] ] ] ] ] ] ] ] ] ] ] ] ] ] ] ] ] ] ] ] ] y#",
"c$( ( ( ( ( ( ( ( ( ( ( ( ( ( ( ( ( ( ( ( ( ( ( =+o$/+p$,#q$r$s$t$u$v$k@u c w$] ] ] ] ] ] ] ] ] ] ] ] ] ] ] ] ] ] ] ] ] ] ] ] y#",
"c$( ( ( ( ( ( ( ( ( ( ( ( ( ( ( ( ( ( ( ( ( ( ( ( ( ( ( ( ( ( x$y$] ] ] ] ] ] ] ] ] ] ] ] ] ] ] ] ] ] ] ] ] ] ] ] ] ] ] ] ] ] y#",
"z$A$A$A$A$A$A$A$A$A$A$A$A$A$A$A$A$A$A$A$A$A$A$A$A$A$A$B$C$D$E$F$# ]#]#]#]#]#]#]#]#]#]#]#]#]#]#]#]#]#]#]#]#]#]#]#]#]#]#]#G$H$I$J$"};
