/* XPM */
static char * exit_xpm[] = {
"64 64 448 2",
"  	c #704F2F",
". 	c #7A5737",
"+ 	c #7A5738",
"@ 	c #7A5838",
"# 	c #7C5939",
"$ 	c #7F5B3B",
"% 	c #815D3C",
"& 	c #755433",
"* 	c #8F826F",
"= 	c #A99E8C",
"- 	c #A99F8C",
"; 	c #A99F8D",
"> 	c #A99E8D",
", 	c #AA9E8C",
"' 	c #ADA290",
") 	c #B2A895",
"! 	c #B6AB99",
"~ 	c #A69A87",
"{ 	c #916947",
"] 	c #A37754",
"^ 	c #9D7350",
"/ 	c #856341",
"( 	c #8B6745",
"_ 	c #8C6544",
": 	c #C8BEAB",
"< 	c #F3EBD7",
"[ 	c #D3CAB6",
"} 	c #8F6847",
"| 	c #8E6A46",
"1 	c #6B600B",
"2 	c #776C05",
"3 	c #655B04",
"4 	c #916B49",
"5 	c #8B6544",
"6 	c #C6BDA9",
"7 	c #D2C9B5",
"8 	c #8F6846",
"9 	c #736024",
"0 	c #A89808",
"a 	c #948607",
"b 	c #7F7306",
"c 	c #775B36",
"d 	c #A27754",
"e 	c #A27653",
"f 	c #8B6543",
"g 	c #C5BBA8",
"h 	c #CEC7B4",
"i 	c #F2EAD6",
"j 	c #8F6746",
"k 	c #68522A",
"l 	c #857906",
"m 	c #786D05",
"n 	c #60550D",
"o 	c #876442",
"p 	c #856340",
"q 	c #7E6336",
"r 	c #726023",
"s 	c #5F5508",
"t 	c #595007",
"u 	c #856440",
"v 	c #A17653",
"w 	c #966F4C",
"x 	c #976F4C",
"y 	c #6E532E",
"z 	c #6E674B",
"A 	c #B4AE9B",
"B 	c #D2C8B5",
"C 	c #9E7451",
"D 	c #7D5E3C",
"E 	c #817406",
"F 	c #675C0E",
"G 	c #83731B",
"H 	c #988907",
"I 	c #A39308",
"J 	c #A39408",
"K 	c #897C06",
"L 	c #867906",
"M 	c #6E5929",
"N 	c #735932",
"O 	c #6B5824",
"P 	c #716020",
"Q 	c #6B6105",
"R 	c #746905",
"S 	c #776B05",
"T 	c #867E64",
"U 	c #F0E8D4",
"V 	c #D1C8B5",
"W 	c #966E4C",
"X 	c #7A6F05",
"Y 	c #A19208",
"Z 	c #A99908",
"` 	c #887B06",
" .	c #685E05",
"..	c #877B06",
"+.	c #726705",
"@.	c #685225",
"#.	c #C4BAA7",
"$.	c #8E6746",
"%.	c #7E7205",
"&.	c #9E8F07",
"*.	c #9C8D07",
"=.	c #6E6305",
"-.	c #786C06",
";.	c #695723",
">.	c #8A6644",
",.	c #886342",
"'.	c #F1E9D5",
").	c #7D6C1B",
"!.	c #847806",
"~.	c #998B07",
"{.	c #978907",
"].	c #877A06",
"^.	c #766B05",
"/.	c #5B4E15",
"(.	c #7F6336",
"_.	c #816536",
":.	c #725A2B",
"<.	c #938B70",
"[.	c #726B47",
"}.	c #5B5633",
"|.	c #A39D8B",
"1.	c #796624",
"2.	c #8A7D06",
"3.	c #938507",
"4.	c #7F7206",
"5.	c #695F20",
"6.	c #D0C9B5",
"7.	c #6E5B24",
"8.	c #918307",
"9.	c #8C7F06",
"0.	c #8E8106",
"a.	c #807406",
"b.	c #635A04",
"c.	c #847706",
"d.	c #817506",
"e.	c #655910",
"f.	c #8D8671",
"g.	c #EAE2CE",
"h.	c #645124",
"i.	c #958707",
"j.	c #9D8E07",
"k.	c #807408",
"l.	c #625418",
"m.	c #785C36",
"n.	c #5E5406",
"o.	c #605704",
"p.	c #726607",
"q.	c #655818",
"r.	c #7A5D37",
"s.	c #84603F",
"t.	c #C4BBA8",
"u.	c #785C37",
"v.	c #594D16",
"w.	c #926C49",
"x.	c #A27654",
"y.	c #604C25",
"z.	c #645224",
"A.	c #99704E",
"B.	c #805D3C",
"C.	c #BEB5A2",
"D.	c #866441",
"E.	c #7B5F37",
"F.	c #695F0B",
"G.	c #867A06",
"H.	c #9F9784",
"I.	c #8B7E06",
"J.	c #936C4A",
"K.	c #715831",
"L.	c #7D7657",
"M.	c #C3BCA9",
"N.	c #735E2A",
"O.	c #69532B",
"P.	c #9B8D07",
"Q.	c #A69608",
"R.	c #A79708",
"S.	c #A29208",
"T.	c #7C7119",
"U.	c #7D7107",
"V.	c #5F5608",
"W.	c #5F4C23",
"X.	c #A09108",
"Y.	c #8D8006",
"Z.	c #6F6414",
"`.	c #73670A",
" +	c #665C08",
".+	c #99704D",
"++	c #604E22",
"@+	c #665E31",
"#+	c #D7D0BD",
"$+	c #685D08",
"%+	c #70640A",
"&+	c #9C7250",
"*+	c #5C4A22",
"=+	c #6E6532",
"-+	c #ACA692",
";+	c #E2DBC7",
">+	c #705E23",
",+	c #786C0A",
"'+	c #8B6744",
")+	c #665916",
"!+	c #8B7D06",
"~+	c #988A07",
"{+	c #A59508",
"]+	c #A19108",
"^+	c #8F8327",
"/+	c #A69F88",
"(+	c #7F7108",
"_+	c #6C6205",
":+	c #A59608",
"<+	c #9B9581",
"[+	c #795D36",
"}+	c #7E7106",
"|+	c #675A16",
"1+	c #CBC4B1",
"2+	c #7D5E3B",
"3+	c #827606",
"4+	c #7F603D",
"5+	c #604F20",
"6+	c #9A8B07",
"7+	c #968807",
"8+	c #857806",
"9+	c #847E63",
"0+	c #5D4B23",
"a+	c #756A05",
"b+	c #5F571C",
"c+	c #604D24",
"d+	c #908307",
"e+	c #6D6319",
"f+	c #7B6F05",
"g+	c #6F6505",
"h+	c #72660D",
"i+	c #6D5F15",
"j+	c #9B8C07",
"k+	c #6D620D",
"l+	c #CDC6B3",
"m+	c #756324",
"n+	c #786C05",
"o+	c #746515",
"p+	c #A49408",
"q+	c #665D1C",
"r+	c #695824",
"s+	c #6B552B",
"t+	c #A29308",
"u+	c #8F8106",
"v+	c #837706",
"w+	c #908972",
"x+	c #614E24",
"y+	c #807407",
"z+	c #8C7E06",
"A+	c #716605",
"B+	c #D6CEBB",
"C+	c #E1DAC6",
"D+	c #866440",
"E+	c #765937",
"F+	c #6A542A",
"G+	c #978807",
"H+	c #595104",
"I+	c #7F795F",
"J+	c #564E20",
"K+	c #9B957F",
"L+	c #835E3E",
"M+	c #946B4A",
"N+	c #936B4A",
"O+	c #7A5B39",
"P+	c #6D532F",
"Q+	c #856140",
"R+	c #846140",
"S+	c #655814",
"T+	c #665C04",
"U+	c #7C7005",
"V+	c #5F5604",
"W+	c #A19987",
"X+	c #D8CFBC",
"Y+	c #D9D0BC",
"Z+	c #DBD1BE",
"`+	c #E0D8C4",
" @	c #E3DAC6",
".@	c #9B8F7C",
"+@	c #B1A694",
"@@	c #B1A794",
"#@	c #B1A795",
"$@	c #908875",
"%@	c #787057",
"&@	c #5A5214",
"*@	c #50490B",
"=@	c #A49508",
"-@	c #6B6005",
";@	c #685D04",
">@	c #6A6005",
",@	c #6A5F05",
"'@	c #635904",
")@	c #554E04",
"!@	c #5E5504",
"~@	c #5B5304",
"{@	c #736805",
"]@	c #463F07",
"^@	c #7E5C3D",
"/@	c #7F5C3D",
"(@	c #805D3D",
"_@	c #825E3F",
":@	c #856141",
"<@	c #876343",
"[@	c #7D5B3C",
"}@	c #D8D1BD",
"|@	c #796E14",
"1@	c #524A04",
"2@	c #8F8107",
"3@	c #A09107",
"4@	c #7C7006",
"5@	c #7A6E05",
"6@	c #675E05",
"7@	c #916948",
"8@	c #D0C7B4",
"9@	c #796E1D",
"0@	c #665D04",
"a@	c #9F9007",
"b@	c #7B7005",
"c@	c #7B6F06",
"d@	c #725832",
"e@	c #D0C7B3",
"f@	c #73691D",
"g@	c #544B0C",
"h@	c #D0C6B3",
"i@	c #EBE3CF",
"j@	c #837C61",
"k@	c #5A5104",
"l@	c #A79808",
"m@	c #665C05",
"n@	c #796D05",
"o@	c #906947",
"p@	c #CFC6B2",
"q@	c #7E7861",
"r@	c #625804",
"s@	c #6D6205",
"t@	c #796E05",
"u@	c #7D6136",
"v@	c #CFC5B2",
"w@	c #807A63",
"x@	c #908306",
"y@	c #6D6305",
"z@	c #908207",
"A@	c #574E0A",
"B@	c #7B700D",
"C@	c #625904",
"D@	c #5D5404",
"E@	c #807306",
"F@	c #6F6405",
"G@	c #81623C",
"H@	c #C4BDAA",
"I@	c #756905",
"J@	c #514904",
"K@	c #574F04",
"L@	c #5C5304",
"M@	c #544814",
"N@	c #7E5E3C",
"O@	c #906847",
"P@	c #C5BEAB",
"Q@	c #938407",
"R@	c #998A07",
"S@	c #695F05",
"T@	c #645B04",
"U@	c #514A04",
"V@	c #615804",
"W@	c #595004",
"X@	c #756908",
"Y@	c #966E4B",
"Z@	c #837A47",
"`@	c #958607",
" #	c #6F640A",
".#	c #C4BDA9",
"+#	c #7D7106",
"@#	c #706605",
"##	c #5C5404",
"$#	c #827506",
"%#	c #999380",
"&#	c #5B5208",
"*#	c #CEC5B2",
"=#	c #DFD8C4",
"-#	c #928407",
";#	c #584E0B",
">#	c #EBE3D0",
",#	c #878063",
"'#	c #8E8006",
")#	c #837606",
"!#	c #675D05",
"~#	c #7C6036",
"{#	c #4B4512",
"]#	c #C3BDAA",
"^#	c #ABA48D",
"/#	c #8D7F06",
"(#	c #7C5D3B",
"_#	c #7E7214",
":#	c #AFA88F",
"<#	c #C1BAA8",
"[#	c #645715",
"}#	c #5E5618",
"|#	c #80795F",
"1#	c #574B15",
"2#	c #6D641D",
"3#	c #645A04",
"4#	c #968707",
"5#	c #736705",
"6#	c #534617",
"7#	c #6A6445",
"8#	c #5B5204",
"9#	c #7F7305",
"0#	c #E8E1CD",
"a#	c #91875A",
"b#	c #908206",
"c#	c #7D7105",
"d#	c #ECE4D0",
"e#	c #837C62",
"f#	c #6E6405",
"g#	c #5B510C",
"h#	c #99714E",
"i#	c #847E64",
"j#	c #7E7206",
"k#	c #6E6306",
"l#	c #6A5823",
"m#	c #8D6946",
"n#	c #EAE3CF",
"o#	c #ABA492",
"p#	c #817B64",
"q#	c #7F764D",
"r#	c #706505",
"s#	c #5F5315",
"t#	c #624F24",
"u#	c #705632",
"v#	c #DFD7C4",
"w#	c #B7AD9C",
"x#	c #7A5A39",
"y#	c #846240",
"z#	c #CFC6B3",
"A#	c #C6BDAB",
"B#	c #896342",
"C#	c #CFC5B3",
"D#	c #C7BDAB",
"E#	c #B5AB99",
"F#	c #D3CAB7",
"G#	c #D4CAB7",
"H#	c #D6CDB9",
"I#	c #DCD3C0",
"J#	c #DFD6C2",
"K#	c #B9AE9C",
"L#	c #936B49",
"M#	c #966D4B",
"N#	c #976E4C",
"O#	c #876241",
"  . . + + + + + @ + @ + + + + + + + + + + + @ + + + . @ # $ % & * = = = = = = - ; ; ; ; > ; ; ; ; ; ; ; ; ; ; > = = = , ' ) ! ~ ",
"{ ] ] ] ] ] ] ] ] ] ] ] ] ] ] ] ^ / ( ] ] ] ] ] ] ] ] ] ] ] ] _ : < < < < < < < < < < < < < < < < < < < < < < < < < < < < < < [ ",
"} ] ] ] ] ] ] ] ] ] ] ] ] ] ] | 1 2 3 4 ] ] ] ] ] ] ] ] ] ] ] 5 6 < < < < < < < < < < < < < < < < < < < < < < < < < < < < < < 7 ",
"8 ] ] ] ] ] ] ] ] ] ] ] ] ] ] 9 0 a b c ] ] d e e ] ] ] ] ] ] f g h i < < < < < < < < < < < < < < < < < < < < < < < < < < < < 7 ",
"j ] ] ] ] ] ] ] ] ] ] ] ] ] ] k l m n o p q r s t u ] ] v w x y z A < < < < < < < < < < < < < < < < < < < < < < < < < < < < < B ",
"j ] ] ] ] ] ] ] ] ] ] ] ] ] ] C D E F G H I J K L M N O P Q R S T U < < < < < < < < < < < < < < < < < < < < < < < < < < < < < V ",
"j ] ] ] ] ] ] ] ] ] ] ] ] ] ] ] W K X Y Z Z Y ` `  .l ..` L +.@.#.< < < < < < < < < < < < < < < < < < < < < < < < < < < < < < V ",
"$.] ] ] ] ] ] ] ] ] ] ] ] ] ] ] W %.b &.Z Z *.` ` =.` ` -.;.>.,.g i '.'.< < < < < < < < < < < < < < < < < < < < < < < < < < < V ",
"$.] ] ] ] ] ] ] ] ] ] ] ] ] ] ] C ).!.~.Z Z {.` ` =.].^./.(._.:.<.[.}.|.i < < < < < < < < < < < < < < < < < < < < < < < < < < V ",
"$.] ] ] ] ] ] ] ] ] ] ] ] ] ] ] ] 1.2.3.Z Z 3.` ` Q L ].L ].` ].4.5.6.< < < < < < < < < < < < < < < < < < < < < < < < < < < < V ",
"$.] ] ] ] ] ] ] ] ] ] ] ] ] ] ] ] 7.8.9.Z Z 0.a.m b.c.` ` d.R e.f.g.< < < < < < < < < < < < < < < < < < < < < < < < < < < < < V ",
"$.] ] ] ] ] ] ] ] ] ] ] ] ] ] ] ] h.i.!.j.k.l.m.n.o.b p.q.r.>.s.t.< < < < < < < < < < < < < < < < < < < < < < < < < < < < < < V ",
"$.] ] ] ] ] ] ] ] ] ] ] ] ] ] ] ] u.a v.u.w.x.x.y.z.u w.d A.W B.C.< < < < < < < < < < < < < < < < < < < < < < < < < < < < < < V ",
"$.] ] ] ] ] ] ] ] ] ] ] ] ] ] ] ] D.8.E.] ] ] ] ] ] ] ] A.F.G.R H.< < < < < < < < < < < < < < < < < < < < < < < < < < < < < < V ",
"$.] ] ] ] ] ] ] ] ] ] ] ] ] ] ] ] D.I.(.] ] ] ] ] ] ] J.K.c.Z 3.L.M.< < < < < < < < < < < < < < < < < < < < < < < < < < < < < V ",
"$.] ] ] ] ] ] ] ] ] ] ] ] ] ] ] ] / c.N.d ] ] ] ] ] ] O.P.Q.Z R.S.T.'.< < < < < < < < < < < < < < < < < < < < < < < < < < < < V ",
"$.] ] ] ] ] ] ] ] ] ] ] ] ] ] ] ] x U.V.e ] ] ] ] ] ] W.` Q.Z X.Y.Z.'.< < < < < < < < < < < < < < < < < < < < < < < < < < < < V ",
"$.] ] ] ] ] ] ] ] ] ] ] ] ] ] ] ] e `. +e ] ] ] ] ] ] .+++&.Z H @+#+< < < < < < < < < < < < < < < < < < < < < < < < < < < < < V ",
"$.] ] ] ] ] ] ] ] ] ] ] ] ] ] ] ] e $+%+e ] ] ] ] ] &+>.*+{.j.a =+-+;+< < < < < < < < < < < < < < < < < < < < < < < < < < < < V ",
"$.] ] ] ] ] ] ] ] ] ] ] ] ] ] ] ] d >+,+e ] ] ] ] '+)+!+~+{+J J ]+&.^+/+i < < < < < < < < < < < < < < < < < < < < < < < < < < V ",
"$.] ] ] ] ] ] ] ] ] ] ] ] ] ] ] ] ] (.(+^ ] ] ] 4 _+:+Z Z Z Z Z Z Z Z ].<+U < < < < < < < < < < < < < < < < < < < < < < < < < V ",
"$.] ] ] ] ] ] ] ] ] ] ] ] ] ] ] ] ] [+}+/ ] ] x |+J Z Z Z Z Z Z Z Z Z i._+1+< < < < < < < < < < < < < < < < < < < < < < < < < V ",
"$.] ] ] ] ] ] ] ] ] ] ] ] ] ] ] ] ] 2+3+4+] v 5+6+Z Z Z Z Z Z Z Z Z Z 7+8+9+i < < < < < < < < < < < < < < < < < < < < < < < < V ",
"$.] ] ] ] ] ] ] ] ] ] ] ] ] ] ] ] ] W 3+0+] W a+Z Z Z Z Z Z Z Z Z Z Z a ` b+'.< < < < < < < < < < < < < < < < < < < < < < < < V ",
"$.] ] ] ] ] ] ] ] ] ] ] ] ] ] ] ] ] W a.c+] W ` Z Z Z Z Z Z Z Z Z Z Z d+` e+g.< < < < < < < < < < < < < < < < < < < < < < < < V ",
"$.] ] ] ] ] ] ] ] ] ] ] ] ] ] ] ] ] W f+O ] W I.Z Z Z Z Z Z Z Z Z Z Q.I.` g+M.< < < < < < < < < < < < < < < < < < < < < < < < V ",
"$.] ] ] ] ] ] ] ] ] ] ] ] ] ] ] ] ] A.h+i+&+W 8+Z Z Z Z Z Z Z Z Z Z j+` ` k+l+< < < < < < < < < < < < < < < < < < < < < < < < V ",
"$.] ] ] ] ] ] ] ] ] ] ] ] ] ] ] ] ] ] m+n+W &+o+Z Z Z Z Z Z Z Z Z p+2.` ` q+i < < < < < < < < < < < < < < < < < < < < < < < < V ",
"$.] ] ] ] ] ] ] ] ] ] ] ] ] ] ] ] ] ] r+..W ] s+t+Z Z Z Z Z Z Z {+u+` ` v+w+i < < < < < < < < < < < < < < < < < < < < < < < < V ",
"$.] ] ] ] ] ] ] ] ] ] ] ] ] ] ] ] ] ] x+2.W ] w.y+Z Z Z Z Z Z &.z+` ` ` A+B+g.M.C+< < < < < < < < < < < < < < < < < < < < < < V ",
"$.] ] ] ] ] ] ] ] ] ] ] ] ] ] ] ] ] ] D+` E+] d F+G+Z Z Z Q.7+` ` ` ].S H+I+J+A+K+U < < < < < < < < < < < < < < < < < < < < < V ",
"L+M+M+M+M+M+M+M+M+M+M+M+M+N+M+M+M+M+M+O+!.P+Q+R+S+T+..j+i.9.` ` L U+o.V+3+Q n+` A+W+X+X+X+X+X+X+X+X+X+X+X+X+X+X+X+X+X+Y+Z+`+ @g ",
".@+@+@+@+@@@@@@@@@@@@@@@@@@@@@#@#@#@#@$@4.%@&@*@*.=@G.-@;@>@,@'@)@!@b ].].~@f+` {@]@^@/@/@/@/@/@/@/@/@/@/@/@/@/@/@/@/@(@_@:@<@[@",
"V < < < < < < < < < < < < < < < < < < }@|@1@2@a.Z Z Z Z Q.J Y 3@S.X.K ` 4@Q  .5@+.6@( ] ] ] ] ] ] ] ] ] ] ] ] ] ] ] ] ] ] ] ] 7@",
"8@< < < < < < < < < < < < < < < < < < '.9@0@a@b@Z Z Z Z Z Z Z Z Z H ` ` c@!.+.n+` a.d@] ] ] ] ] ] ] ] ] ] ] ] ] ] ] ] ] ] ] ] { ",
"e@< < < < < < < < < < < < < < < < < < '.f@{@I.!@6+Z Z Z Z Z Z Z Z ~.` ` ` ` X R ` 4@g@A.] ] ] ] ] ] ] ] ] ] ] ] ] ] ] ] ] ] ] { ",
"h@< < < < < < < < < < < < < < < < < < i@j@k@b.Q %.l@Z Z Z Z Z Z a@9.` ` ` ..m@a.+.>@n@u ] ] ] ] ] ] ] ] ] ] ] ] ] ] ] ] ] ] ] o@",
"p@< < < < < < < < < < < < < < < < < i@q@l *.v+r@{+Z Z Z Z Z Z &.` ` ` ` ` a+_+s@t@..l u@] ] ] ] ] ] ] ] ] ] ] ] ] ] ] ] ] ] ] o@",
"v@< < < < < < < < < < < < < < < < i w@x@Z Z ~+y@z@Z Z Z Z Z Z x@` ` ` ].R 1@b L ` ` ` A@e ] ] ] ] ] ] ] ] ] ] ] ] ] ] ] ] ] ] o@",
"v@< < < < < < < < < < < < < < < < l+B@Z Z {+2.n+C@3@Z Z Z Z P.K ` ` 3+'@s@f+D@E@` c.F@G@] ] ] ] ] ] ] ] ] ] ] ] ] ] ] ] ] ] ] o@",
"v@< < < < < < < < < < < < < < < < H@~.Z Z 7+` I@J@K@3.Z 0 G+` ].b -@L@X ` ` E o.D@M@N@] ] ] ] ] ] ] ] ] ] ] ] ] ] ] ] ] ] ] ] O@",
"v@< < < < < < < < < < < < < < < < P@Q@0 R@K ` S@T@U@D@8+` F@V@W@+.u+G.` ` ` ` X@Y@&+] ] ] ] ] ] ] ] ] ] ] ] ] ] ] ] ] ] ] ] ] O@",
"v@< < < < < < < < < < < < < < < < '.Z@a ` ` d.D@z@`@b.d.K v+8.p+Z X.` ` ` ` `  #e ] ] ] ] ] ] ] ] ] ] ] ] ] ] ] ] ] ] ] ] ] ] O@",
"v@< < < < < < < < < < < < < < < < < .#A++#@###4.2.` $#2 Z Z Z Z Z j+` ` ` ` `  +e ] ] ] ] ] ] ] ] ] ] ] ] ] ] ] ] ] ] ] ] ] ] O@",
"v@< < < < < < < < < < < < < < < < < < l+%#b.c.` ` ` v+a+Z Z Z Z Z H ` ` ` ` ` &#e ] ] ] ] ] ] ] ] ] ] ] ] ] ] ] ] ] ] ] ] ] ] O@",
"*#< < < < < < < < < < < < < < < < < < < =#a.a K ` ` t@K Z Z Z Z Z -#` ` ` ` ` ;#e ] ] ] ] ] ] ] ] ] ] ] ] ] ] ] ] ] ] ] ] ] ] O@",
"v@< < < < < < < < < < < < < < < < < < < >#,#'#$#)#+#!#I Z Z Z Z :+2.` ` ` ` 8+~#] ] ] ] ] ] ] ] ] ] ] ] ] ] ] ] ] ] ] ] ] ] ] O@",
"v@< < < < < < < < < < < < < < < < < < < < H@S@{#K@+#j.Z Z Z Z Z P.` ` ` ` ` b c ] ] ] ] ] ] ] ] ] ] ] ] ] ] ] ] ] ] ] ] ] ] ] O@",
"v@< < < < < < < < < < < < < < < < < < < < ]#v+^#[.p+Z Z Z Z Z l@/#` ` ` ` ` +.(#] ] ] ] ] ] ] ] ] ] ] ] ] ] ] ] ] ] ] ] ] ] ] O@",
"v@< < < < < < < < < < < < < < < < < < < < }@_#:#<#v+Z Z Z Z Z j+` ` ` ` ` ` [#&+] ] ] ] ] ] ] ] ] ] ] ] ] ] ] ] ] ] ] ] ] ] ] O@",
"v@< < < < < < < < < < < < < < < < < < < < '.9@}#|#>@-#Z Z Z I I.` ` ` ` ` a+1#x ] ] ] ] ] ] ] ] ] ] ] ] ] ] ] ] ] ] ] ] ] ] ] O@",
"v@< < < < < < < < < < < < < < < < < < < < '.2#3#_+X.R 2 4#a@2.` ` ].l E !#y@5#6#e ] ] ] ] ] ] ] ] ] ] ] ] ] ] ] ] ] ] ] ] ] ] O@",
"p@< < < < < < < < < < < < < < < < < < < < i 7#8#{.S@9#K U+F@!#o.##L@V@!#+.!#r@@#D.] ] ] ] ] ] ] ] ] ] ] ] ] ] ] ] ] ] ] ] ] ] O@",
"v@< < < < < < < < < < < < < < < < < < < < < 0#a#Z {+b#R S@5@c#y@{@A+Q V+b.n@].!.F+] ] ] ] ] ] ] ] ] ] ] ] ] ] ] ] ] ] ] ] ] ] O@",
"v@< < < < < < < < < < < < < < < < < < < < < d#e#6+Z Z Z Q.&.~+^.f#R 5@v+` ` ` L g#h#] ] ] ] ] ] ] ] ] ] ] ] ] ] ] ] ] ] ] ] ] O@",
"v@< < < < < < < < < < < < < < < < < < < < < < i@i#2.I 0 Z Z Z &.` ` ` ` L j#k#l#m#] ] ] ] ] ] ] ] ] ] ] ] ] ] ] ] ] ] ] ] ] ] O@",
"v@< < < < < < < < < < < < < < < < < < < < < < < n#o#p#q#5@..` ` r#C@~@s#t#u#( d ] ] ] ] ] ] ] ] ] ] ] ] ] ] ] ] ] ] ] ] ] ] ] O@",
"v@< < < < < < < < < < < < < < < < < < < < < < < < < < d#v#v#v#w#x#y#w &+] ] ] ] ] ] ] ] ] ] ] ] ] ] ] ] ] ] ] ] ] ] ] ] ] ] ] O@",
"z#< < < < < < < < < < < < < < < < < < < < < < < < < < < < < < A#B#] ] ] ] ] ] ] ] ] ] ] ] ] ] ] ] ] ] ] ] ] ] ] ] ] ] ] ] ] ] O@",
"C#< < < < < < < < < < < < < < < < < < < < < < < < < < < < < < A#B#] ] ] ] ] ] ] ] ] ] ] ] ] ] ] ] ] ] ] ] ] ] ] ] ] ] ] ] ] ] O@",
"C#< < < < < < < < < < < < < < < < < < < < < < < < < < < < < < D#B#] ] ] ] ] ] ] ] ] ] ] ] ] ] ] ] ] ] ] ] ] ] ] ] ] ] ] ] ] ] O@",
"z#< < < < < < < < < < < < < < < < < < < < < < < < < < < < < < D#B#] ] ] ] ] ] ] ] ] ] ] ] ] ] ] ] ] ] ] ] ] ] ] ] ] ] ] ] ] ] O@",
"z#< < < < < < < < < < < < < < < < < < < < < < < < < < < < < < A#B#] ] ] ] ] ] ] ] ] ] ] ] ] ] ] ] ] ] ] ] ] ] ] ] ] ] ] ] ] ] O@",
"E#F#F#F#F#F#F#F#F#F#F#F#F#F#F#F#F#F#F#F#F#F#F#F#F#F#F#G#H#I#J#K## 7@7@7@7@7@7@7@7@7@7@7@7@7@7@7@7@7@7@7@7@7@7@7@7@7@7@7@L#M#N#O#"};
