/* XPM */
static char * pawn_xpm[] = {
"98 160 69 1",
" 	c None",
".	c #B6B10F",
"+	c #676408",
"@	c #5E5B08",
"#	c #9F9A0D",
"$	c #948E0C",
"%	c #1A1902",
"&	c #0F0F05",
"*	c #0F0F04",
"=	c #131202",
"-	c #6F6B09",
";	c #111003",
">	c #181702",
",	c #0E0E05",
"'	c #585507",
")	c #383605",
"!	c #4B4806",
"~	c #605D08",
"{	c #121102",
"]	c #0D0D05",
"^	c #434105",
"/	c #302F04",
"(	c #121103",
"_	c #1E1D03",
":	c #0C0C05",
"<	c #343204",
"[	c #6B6709",
"}	c #222103",
"|	c #101004",
"1	c #8B860C",
"2	c #212003",
"3	c #141302",
"4	c #837E0B",
"5	c #78740A",
"6	c #272603",
"7	c #0C0C06",
"8	c #747009",
"9	c #0B0B05",
"0	c #7E7A0B",
"a	c #121203",
"b	c #252403",
"c	c #0A0A05",
"d	c #111004",
"e	c #555207",
"f	c #524F07",
"g	c #2B2A03",
"h	c #0B0B06",
"i	c #424006",
"j	c #3D3B05",
"k	c #282703",
"l	c #4F4C07",
"m	c #111104",
"n	c #464406",
"o	c #646108",
"p	c #484606",
"q	c #403E05",
"r	c #4D4A06",
"s	c #5A5708",
"t	c #090905",
"u	c #080805",
"v	c #151402",
"w	c #191802",
"x	c #0A0A06",
"y	c #070705",
"z	c #060604",
"A	c #050504",
"B	c #060605",
"C	c #040403",
"D	c #030303",
"                                                                                                  ",
"                                                                                                  ",
"                                                                                                  ",
"                                                                                                  ",
"                                                                                                  ",
"                                                                                                  ",
"                                                                                                  ",
"                                                                                                  ",
"                                                                                                  ",
"                                                                                                  ",
"                                                                                                  ",
"                                                                                                  ",
"                                                                                                  ",
"                                                                                                  ",
"                                                                                                  ",
"                                                                                                  ",
"                                                                                                  ",
"                                                                                                  ",
"                                                                                                  ",
"                                                                                                  ",
"                                                                                                  ",
"                                                                                                  ",
"                                                                                                  ",
"                                                                                                  ",
"                                                                                                  ",
"                                                                                                  ",
"                                                                                                  ",
"                                                                                                  ",
"                                                                                                  ",
"                                                                                                  ",
"                                                                                                  ",
"                                                                                                  ",
"                                                                                                  ",
"                                                                                                  ",
"                                                                                                  ",
"                  .+@#                                                                            ",
"                 $%&*=#                                                                           ",
"                 -;>,,'                       .)===!                                              ",
"                 ~{%,]^                       .{)!)/.                                             ",
"                 +(_,:<                       .;[$[}.                                             ",
"                 [(_,:}.                      .|[1[%.                                             ",
"                 -(2,:3#                      #|-4-3.                                             ",
"                 5(6,7{#                      $|84-=#                                             ",
"                 5(6&9($                     .4|80-(#                                             ",
"                 0ab*9;1                   1@<(;858;=^[.                                          ",
"                 0;b|cd4                 #e|;^f;-8-(e/|{8.                                        ",
"                 4ag*h|0                8=(e41@;--[(815i|)#                                       ",
"                 1(g|c&5               +|j4444e{[[[(+4418(=4                                      ",
"                 1(k|c,-              ~|f14400l{@@@(@40440/($                                     ",
"                 1(g|h]+             8|e140000!mddd|'0004446=$                                    ",
"                 $(g;9:@            $an4400588[oo~oo[8850044=p.                                   ",
"                 ${g;h9f         ..#n;p<_=(;;mmmm|||||d;{=6qi|+..                                 ",
"                 ${ga9hp        .p{|m((36)^rfs~+[[--[[osl^<%{{|;=+                                ",
"                 #=6a7c<.       $|^fs~o++[[-85550411$$#######$15p6.                               ",
"                 #=2(7t_.       +m@~~@~oo+[-4851144$1$1$#####...1{#                               ",
"                 #=_(:t(.       n>@s[4o@14+5#88$141#1$$$#$$##$$.#=1                               ",
"                 #%_(:u;.      .6js'8#os$4~8#-8$141#$#$$####.$$..}-                               ",
"                  }%{]u|$      #=p'e-#~'$4@8#[-$141#$#$$.###.$$..qe                               ",
"                  g>{]u&1      #{ref-#@e$0s-#++$141#$#$$.###.$$..rj                               ",
"                  )3=]u,0      $(lfl[#sf$0e[#~~$141##.$$.###.$$..s%.                              ",
"                  q==]u,-      1(llr[#'l$0l+#'e$41$$#.$$.###.$$..o{.                              ",
"                  p(>,u,o      1(llr[#'l$0l+#'e$41$$#.$$.###.$$..+{.                              ",
"                  r(v,u]'      1(lfl[#sf$0e[#~~$111$#.$$.###.$$..+{.                              ",
"                  f(w,u:l      $(fef-#@e$0'-#++$141#$#$$.###.$$..~=.                              ",
"                  ';w,u9p      $(f'e-#~'$4@8#[[$141#$#$$.###.$$..eg                               ",
"                  ~d},tci      #=ls'-#~s$4~8#--$141#$#$$####.$$..np                               ",
"                  +m6,tt).     #>n@s8#o@$4o5#-8$144#1$$$#$###$$../~                               ",
"                  -|6&tug.      </@s8#+~$4+5#85$144#1$$$#$$$#$$..>5                               ",
"                  5|b*xy%#      f(f'~+++[[[-88550411$$$$####.#$1[{$                               ",
"                  0|b*cz=#      0**|(=_jpfs~+[85004444008[@r<3;**6#                               ",
"                  1|k|hz;#       .4o|_<%=(;dmmd;;;;;;ddd;(=%);;8$.                                ",
"                  $|k|cA|$         0&{04408-[+~~@@@~o+[85041@|;#                                  ",
"                  $m<|hA,1         8m_%44000555555555500004-|q{$                                  ",
"                  #;/|hA]0         ~{.{)4440000555500000448;i#=0                                  ",
"                  #;<;9A78         n^.1d/0444000000000444[;j..6'                                  ",
"                  .(<;9Aho        .3-..1=(+1444444444441r|p#..e=.                                 ",
"                  .(<a7zxe        4;#....^|/+411111110e=;~....$|0                                 ",
"                  .=/a:ztp       ._q......0)|(j'o+~l6|df$......q^.                                ",
"                  .>k(:zuj       +|$........1e)3{({{qo#####$$$$5|+################                ",
"                  ._k;:yy6.     0|o........##..###1((dmmm|mmmmmdd|mmmmmmmmm||||||{#               ",
"                  .gb(:yz3.    1;p################4;qqqjj)<<<<<<<</<</<<<<))jjqq){#               ",
"                  .<6{]yB{#   4(j#################0;ppppn^iiiiqqqqqqqqqiii^^npp!n(#               ",
"                  .j}{]uA($  #%g########$$$$$$$$$$0;p>;;;;;;;;;;(((((;;;;;;;;;;g^{#               ",
"                  .q}=,uC;1  ld1$$$$$$$$$$$$$$$$115;n=<ssssssssi((((arssssssss>_i{#               ",
"                   ^_=,uC|4  $;e#$$$$$1111111111118;^{r........~(===(5......../%i{#               ",
"                   p%>,uD*5   [*'$1111111114444444-;i{r........~({{{(5......../%q{#               ",
"                   r>%,uD,8.#..~|i4144444440000000[;i{r........~({{{(5......../>q{#               ",
"                18-q((*,,|;||=4 8;{'50000055555555+;q{r........~({{{(5......../>j{#               ",
"               1|m(=6qpf@o[-5q_. 1lm;j@85555888888o;q(r........~({{{(5......../>){#               ",
"               gq#...........1;#   #/|;|{%/q^prlfe!;q(r........~({{{(5......../>){#               ",
"              .{+............$;$   1m;+~lj}={(;m|||;j(r........~({{{(5......../3<{#               ",
"              .>@............8;#  .}j{l00444444005[;)(r........~({{{(5......../=<{#               ",
"               i/$$45[enqi^qgml  $/{#!%004441111115;)(r........~({{{(5......../=/{#               ",
"               1;&||||=jni>||'.#[;%$.0;04411111$$$0;)(r........~({{{(5......../=/{#               ",
"                $-l;r51111$1p=/(al#...(84111$$$$$$0;<(l........~({{{(0......../=/{#               ",
"                  ji$40550410;j[#.....%+111$$$$###4;<{%pppppppp/{{{{{jpppppppp==/{#               ",
"                  qq108[[-545=.......0d~11$$$#####4;<{;(((((((({{{{{{(((((((((;=/{#               ",
"                  e>48[~~+-0-=.....1pd;@$$$$######4;<{a{{{{{{{{{{{{{{{{{{{{{{{;=g{#               ",
"                  4;58o'e~[0[{55-sg&=5)@$$$#######1;<{a{{{{{{{{{{{{{{{{{{{{{{{;=g{#               ",
"                  .=o8+@so-0+d{(=6r-..6+$$$####...1;<{a{{{{{{{{{{{{{{{{{{{{{{{;=g{#               ",
"                   p/0-++[84@<....   .=8$$####....1;<{a{{{{{{{{{{{{{{{{{{{{{{{;=g{#               ",
"                   0|[588501r^       #;4$$###.....1;<((>======>={{{{{=>======>a=/{#               ",
"                   .q614441$=@       o{1$####.....1;<(!........~({{{(5........63/{#               ",
"                    1;l[[++n|$      ._^$$####.....$(<=q........~({{{(5........>_g=.               ",
"                     -|||m|%5       4|5$$$###.....${/_6........~({{{(5.......#{g6_.               ",
"                      .#....        !g$1$$####....#>}/(#.......~({{{(5.......4;)>j.               ",
"                                   0*+11$$#####....<=jm+.......~({{{(5.......f(j(l                ",
"                                  .%j411$$$########@|j>{.......~({{{(5......$d})|5                ",
"                                 .p(54411$$$#######$m/)m~......~({{{(5......r;j_{.                ",
"                               #8_|o004111$$$#######n{q_;$.....~({{{(5.....0*/q;~                 ",
"                              06||'55044111$$$$#####5|/j{=#....~({{{(5....4a3q_($                 ",
"                             [||;f8850044111$$$$$$$$$^;jq(=4...~({{{(5...8;=qj|@                  ",
"                            4|fd<--88500441111$$$$$$$13{qj{me#.~({{{(5.$n|3jq(q.                  ",
"                            nq.[|q[-855004441111111111-;=qq_|{^q(((((pq;;gqq(3$                   ",
"                           .=~##+|_o-855004444111111144[;{qqq6{;dddd|;{gqq);3$                    ",
"                           .>n###5%|j+555500444444444400[>d_qiqjjjjjjqqiq>|q$                     ",
"                           .%*s#$$$e{m_ro8000444444440005-g|d=g)jjjjj)g=m{o.                      ",
"                           .%^|q1$$14o<;|;>j!e@~++o~sl^g{||3r}m||ddm||;j-$                        ",
"                           .>~[=;q8$1145~!)%=(;;ddd;({>/ns81$$10'(|q-6f.                          ",
"                           .>@14'{|>r+5000588[[+o++[-80044445o^(|6[1$/f                           ",
"                           .>@1440on=||{/p'o+[[-----8-[oen}(|d}f-0441/f                           ",
"                           .>@4400505+fj%{;dd;;({{((;;md;{6^s-5050041gf                           ",
"                           .>s4400558--[[+~serp^iqin!l'@o+[[-88550041gf                           ",
"                           .>s4400558--[+oo~@s'effe's@@~o+[[-88550041gf                           ",
"                           .>s4400558--[+oo~@s'eflfe's@~o+[[-88550041gf                           ",
"                           .>s4400558--[[+o~@s'eeee''s@~o+[[-88550041gf                           ",
"                           .%s44005588-[[+o~@@s'ee''s@~~o+[[-885500416e                           ",
"                            rg14005588-[[+oo~@ss'''s@@~o++[[-85500045|8                           ",
"                            1;q4405558--[++o~~@@@@@@~~oo+[[-88550045{q.                           ",
"                             5(3~405588-[[++o~~~~~~~~oo++[[-885540lm/#                            ",
"                              $q*%s8558--[[++oo~~~~ooo++[[-8855[ra|@#                             ",
"                                5p;|>!o-88-[[++ooooo++[[-88[sq{|3'1                               ",
"                                  .[){m;=gq!le's@@ss'eln)_(dd=!0.                                 ",
"                                     $18@n_(|||*****|||=/r+01#                                    ",
"                                           .#$4000041$..                                          ",
"                                                                                                  ",
"                                                                                                  ",
"                                                                                                  ",
"                                                                                                  ",
"                                                                                                  ",
"                                                                                                  ",
"                                                                                                  ",
"                                                                                                  ",
"                                                                                                  ",
"                                                                                                  ",
"                                                                                                  ",
"                                                                                                  ",
"                                                                                                  ",
"                                                                                                  ",
"                                                                                                  ",
"                                                                                                  ",
"                                                                                                  ",
"                                                                                                  ",
"                                                                                                  ",
"                                                                                                  ",
"                                                                                                  ",
"                                                                                                  ",
"                                                                                                  ",
"                                                                                                  ",
"                                                                                                  "};
